<svg width="22" height="18" fill="none" xmlns="http://www.w3.org/2000/svg"><path d="M21.453 3a8.806 8.806 0 01-2.437.703c.906-.562 1.53-1.36 1.875-2.39-.844.5-1.75.843-2.72 1.03-.843-.905-1.905-1.359-3.187-1.359-1.156 0-2.156.422-3 1.266-.843.844-1.265 1.86-1.265 3.047 0 .312.047.64.14.984A12.488 12.488 0 015.891 4.97 12.459 12.459 0 012 1.78a4.27 4.27 0 00-.563 2.157c0 .75.172 1.437.516 2.062a4.2 4.2 0 001.36 1.5 3.943 3.943 0 01-1.922-.516v.047a4.1 4.1 0 00.984 2.719c.656.781 1.469 1.281 2.438 1.5-.344.094-.72.14-1.125.14a3.68 3.68 0 01-.797-.093 4.379 4.379 0 001.5 2.156 4.48 4.48 0 002.484.844c-1.531 1.219-3.297 1.828-5.297 1.828-.344 0-.687-.016-1.031-.047A11.91 11.91 0 007.109 18c2.5 0 4.72-.64 6.657-1.922 1.78-1.125 3.171-2.656 4.171-4.594.938-1.843 1.407-3.734 1.407-5.671l-.047-.563A8.233 8.233 0 0021.453 3z" fill="#2af3ff"/></svg>