<svg width="644" height="484" preserveAspectRatio="none" xmlns="http://www.w3.org/2000/svg"><path d="M637.582 262.895c3.165 10.199 3.165 10.575-.077 15.554.158 3.422.636 5.454 2.114 5.877 2.183.624 2.768 2.108 3.121 7.225.281 4.055.401 8.052.638 13.037-2.903 1.15-4.467 7.437-6.167 14.264.143 1.453.96 5.64.595 6.796-1.15 3.643.178 7.078 1.198 10.677-5.706 1.77-4.054 14.699-3.128 26.45l-3.995 3.656-1.238-6.3 1.568-6.677-5.86-12.91-1.288 10.426 4.058.817.481 6.225-2.918 1.034c.418 2.132 1.418 5.397 1.258 6.856-.226 2.06-1.21 3.279-2.048 3.986-2.929 2.449-5.54 5.8-7.916 10.699-1.218 2.51-.579 4.649-.353 8.682-1.234-.258-2.513.27-3.734-1.022-1.044-1.102-1.773 4.836-2.902-1.7l-3.767.485-.632-4.911-2.468 2.592 2.54 9.282c2.333 3.565 4.816-2.037 7.307 7.658 1.654-7.68 5.172-4.292 7.846-5.595.426-.205 1.341 2.507 2.03 3.869-1.158 3.72.99 7.92 1.255 12.029.206 3.196 1.678 7.14 2.77 10.28.294.846 1.262-.027 1.79-.095l6.633 9.42c-1.104 2.933-2.146 6.393-3.45 8.993-2.068 4.152-3.312 12.237-7.357 7.573-2.413 2.463-4.918 4.555-7.2 7.535-1.3 1.693-2.424 3.583-4.263 1.504-.376-.426-.896-.628-1.15-.215-3.004 4.853-6.983 1.04-10.64.14-.635-.156-1.626-.883-1.819-.001-1.602 7.35-5.51 2.98-7.927 6.276-1.012 1.382-2.488.944-4.203-1.578-1.312-1.927-2.974-.701-4.426-.467-.998.157-1.89 1.082-2.853 1.53-5.689 2.646-11.8 2.438-17.856 1.68-4.484-.56-8.529.932-12.699 2.152-1.952.564-4.12.38-6.232-1.09-1.732-1.204-.737 4.03-1.755 3.957-2.145-.16-4.299-.372-6.41-.246-2.663.159-5.286.636-8.143 1.004-1.27-3.61-2.657-6.757-4.969-5.687-1.379.638-3.077 2.03-5.26-1.176-1.202-1.762-2.86 1.303-5.015 2.624-1.72-2.094-4.214-6.017-6.926-7.476-2.12-1.142-4.683-4.348-5.75-11.708-2.654-.52-4.388 1.409-5.585 6.355-.882 3.652-2.429 5.072-4.584 3.54-1.146-.813-2.323-.03-3.354.72-3.294 2.392-3.47 2.534-7.86.63l-.52-4.04c-2.207-.28-3.734 1.025-4.848 5.83-1.153 4.997-2.635 10.363-5.613 9.342-1.847-.635-3.736-1.851-5.947-2.965-.058-6.506-.895-12.18-3.902-16.27-4.72-2.167-7.908 2.427-7.668 18.289l-3.694-3.758c-.972 3.436-2.336 6.11-4.728 3.062-.253-.323-.609-.526-.789-.282-2.41 3.276-5.588-2.21-8.292-1.783-1.378.213-3.19-2.465-4.782-4.336-4.322-5.07-8.262-5.23-12.118-4.055-3.185.972-6.407 1.726-9.527 3.112-1.424.63-2.636 2.55-4.529 4.468-1.988-2.208-4.623-5.143-7.258-8.042-.533-.59-1.107-1.428-1.599-1.502-3.395-.498-6.838-1.351-10.144-1.1-7.057.543-14.046 1.642-21.05 2.61-1.97.272-3.867.192-5.789-5.387-.388-1.126-1.04-2.164-1.524-2.394-2.698-1.244-5.262-3.7-8.013-7.593-2.05-2.902-4.47-1.97-6.69-2.34-3.645-.605-7.259-.88-11.34-1.356l-.237 3.178c-2.033-6.11-4.202-6.713-6.367-6.471-4.47.51-8.926 1.148-13.399 1.638-.987.109-2.107.696-2.8-5.386l8.202-8.212-.132-.913c-1.698.568-3.603.245-5.054 1.878-3.87 4.36-8.346 4.568-12.784 5.21-3.277.477-6.514 1.266-10.215 2.007l-1.559-4.525c-4.42.569-8.954 1.085-13.457 1.853-.373.063-.519 1.823-.942 3.458l2.744 4.33c-.86 2.184-1.475 5.796-2.587 6.198-4.28 1.556-8.697 2.277-13.116 2.897-1.64.229-2.154-3.197-2.192-7.888 4.5 3.048 7.361-3.411 11.546-5.926-1.174-2.292-1.973-4.741-2.463-4.69-3.307.334-6.828-.19-9.742 2.216-4.264 3.523-8.466 6.576-14.03 2.53l1.218 9.467c-2.829-3.876-5.175-8.13-7.5-9.99-2.359-1.888-4.674-1.054-7.046-2.057-5.11-2.156-9.965-2.195-14.455.53-1.676 1.019-2.966 4.177-4.72 6.788-.218-.72-.75-2.494-1.19-3.953-2.119-.763-4.28-1.913-6.345-2.14-1.952-.212-4.193-.89-5.6 1.27-1.636 2.51-3.864-1.834-5.476 1.298-1.144 2.219-4.056-3.395-5.42 2.169l2.893 6.474c.523 10.399-2.743 8.125-4.632 10.217-4.834-9.222-9.807-15.14-14.952-20.233-3.715-3.667-7.215-4.181-10.847-6.98-2.367-1.828-4.45-1.067-5.904 4.093 3.491 6.077 7.376 3.455 10.964 13.045-1.585 2.017-3.697.626-4.406 4.97-.097.612-.692.608-1.076.359-3.972-2.476-7.476-.955-11.032.142-.36.11-.769.415-1.122-.011-3.773-4.558-6.753-1.354-10.038-.538l7.948 6.11-1.286 9.667c-3.956 2.387-8.979-7.653-13.672-6.114 2.767 10.623 5.946 7.92 8.845 12.193.307 3.069.628 6.246.995 9.949l-5.706 5.685-1.099-4.263c-4.304-.316-8.403-.61-12.51-.952-.25-.023-.553-.592-.814-.673-5.416-1.736-7.83-4.026-13.6-12.371-1.17-1.69-2.42-2.471-3.618-3.66-1.643-8.717-3.426-13.091-6.437-10.051-2.992 3.006-6.179-3.143-8.989-2.108-.42.155-1.013-.854-1.42-.675-1.83.803-2.931 5.17-5.693 1.564-1.632-2.122-3.558.03-5.512.282-.99-4.072-1.743-8.258-2.871-11.467-.92-2.615-2.288-4.058-3.891-6.753 1.253-1.141 2.444-1.61 3.297-3.22.551-1.04.901-3.602.783-5.742-.078-1.418-1.108-4.003-1.78-4.82-1.318-1.618-2.685-2.442-4.03-3.466-1.267-.967-2.537-1.77-3.805-2.645l-.283-2.72 5.804-3.278c.185 1.438.323 3.777.546 4.03 1.298 1.474 2.648 2.95 3.916 3.44.868.334 1.676-.734 2.427-1.54 1.397-1.514 2.732-3.3 4.32-5.255l-1.37-4.66 3.294-1.217-1.905-5.713c2.377 1.624 3.937 2.385 5.213-2.251 1.621-5.89 4.32-8.28 7.688-7.413l-2.302-3.193 3.276-.422c-2.945-3.175-5.64-5.15-7.933-1.311-.72 1.196-2.534-.581-3.724-2.313-1.081-1.581-2.007-4.95-3.209-8.072-1.395 7.555-4.371 6.707-8.064 3.76-2.741-2.186-5.436-.953-8.173-1.49-1.268-.237-2.586-1.162-3.885-2.725.828-3.164 2.325-2.29 3.575-2.64 1.251-.35 2.523-1.266 3.82-.355 3.175 2.223 3.977-1.867 3.835-9.483-.54-.047-1.082-.285-1.555-.098-1.358.533-2.454-.775-3.952-3.727-2.764-5.447-5.83-5.835-8.766-8.128-1.21-.945-2.412-1.262-3.164-1.64-1.01 2.14-1.637 4.457-2.57 5.284-3.747 3.308-7.773 3.46-12.45-5.592l3.511.729c-.49-7.074-2.492-6.184-3.85-7.346-1.146-.98-2.29-.312-3.435-.372l-1.842-2.03c-.63-1.79-1.26-3.575-2.17-6.153l-3.76 3.22-4.01-10.624c-1.044.259-1.968 5.05-4.048-.362l.02-7.49c-2.683 2.936-6.341-2.033-7.925 5.165L.7 305.577l1.68-7.7-1.722-2.11L0 287.625c.245-.333.416-.862.623-.796 1.44.445 2.697 1.41 4.236 4.6 3.271 6.779 6.858 11.294 10.515 13.706.873.577 1.087 1.659 1.209 5.1 2.44 1.713 4.397-4.207 7.637 3.767-1.178.634-2.084 1.118-2.99 1.607.59 3.45 2.604 3.334 4.509-.245l6.62 7.109c-1.242.91-2.532 1.7-2.159 7.272 2.908 4.618 5.148 2.498 7.54 1.688-1.316-2.188-2.626-3.253-3.896-4.913-.54-.708-.995-2.66-1.487-4.047 3.028.769 5.74-2.008 9.933 1.313l-2.57 3.356c1.3 2.299 2.981-.25 3.923 6.034.18 1.202 2.086 2.856 2.958 2.638 2.088-.528 4.036-2.033 6.868-3.601l-3.83-4.321c.103-4.368.276-9.408-2.117-13.043-.062-.095.144-2.798.233-4.434-3.49-5.027-6.635-7.296-9.72-6.316-1.584.504-1.625.229-4.573-5.228 2.133-5.74 6.175 3.004 8.517-1.937l-1.002-7.796c1.9-1.496 1.9-7.516 2.507-12.12.248-1.891-.43-6.307-1.148-8.66-1.976-6.481-4.193-12.462-6.45-19.04l2.792-1.747c-.5-1.765-.87-3.072-1.285-4.526l1.476-4.166-2.513-.861-1.113-11.548c-1.497.322-2.848-7.965-4.87-3.345.223-6.411-3.71-9.763-2.36-16.817l-3.51-4.65-.186 8.28-.857-.666-2.91-11.84-.923 3.792 1.082-2.212c-1.255-1.626-2.917-3.44-2.62-7.297.226-2.925 1.105-4.963 1.725-7.532l-3-6.35 5.518 1.41-1.89-7.912c.282-2.902 2.417-3.961.364-9.987.485-.852.924-1.847 1.445-2.517 1.946-2.476 2.13-7.732 1.547-14.025-.299-3.29-.737-6.594-1.306-9.84-1.247-6.96-.224-11.441.816-15.083 1.368-4.79 3.303-8.196 4.951-12.092-.036-.964.016-1.724-.105-2.364-2.106-11.032-2.092-11.664.43-17.552.516-1.204 1.314-2.076 1.446-3.826.782-10.6 4.837-9.689 7.608-13.81-.363-1.199-.745-3.253-1.119-3.563-1.78-1.475-3.746 1.34-5.206-6.324l-5.807-3.37c.012-9.363 3.504-2.735 4.482-5.957 1.48 3.007 2.691 5.573 3.939 7.941.347.65.793.701 1.367 1.174l1.03-5.492-1.524-1.846c.301-2.598 2.886-.506 1.315-6.982-1.893-2.684-4.092 1.506-6.067-6.569.017-4.608 1.57-5.341 2.917-6.988 1.478-1.812 3.81-1.856 2.736-9.652 1.348-.174 2.42-.83 3.563-.303.964.435 2.486 3.877 2.927 3.097 1.81-3.212 1.758 3.774 3 5.054-.727-7.885 2.846-5.547 3.052-11.612.012-.32.525-.516.625-.246 1.844 4.93 2.605.973 3.75-.102l-5.46-9.564c2.534-1.98 4.28-5.827 6.936-4.635 2.08.935 3.78.236 5.537-1.27C62.083.925 64.74-.855 67.98 4.77c.462.8 1.06.594 1.597.926 4.368 2.692 4.674 3.399 6.563 15.58 1.987-4.768 4.68-2.674 7.378-.019 1.793 6.647-.823 3.748-1.214 6.34l2.211 7.93c1.626-1.023 3.208-1.612 4.615-2.993 1.73-1.696 1.575-6.293.522-12.105l7.494-4.886c2.273 3.645 4.788 9.35 7.804 9.208.705-.034 2.673 5.073 2.895 7.578.462 5.215 1.304 6.101 2.751 6.485.72.19 1.486.977 2.307 1.548.85-2.27 1.59-5.53 2.76-7.05 1.554-2.013 2.64-4.546 2.27-10.472.655.418 1.147.308 1.427.974 2.535 6.047 5.131 5.742 6.57 2.642 2.234-4.802 5.544-1.853 8.03-5.514l.034-9.59c1.355 3.992 3.471.505 4.878 9.051l.517-8.7 6.004 4.335c.86-4.05 2.895-3.335 5.076-2.207 1.728.9 3.425 1.062 5.121 1.38.92.172 1.804-.677 2.71.071 5.888 4.86 11.123 3.108 16.367 1.892 3.272-.757 6.674 3.077 10 4.569.428.19.98 2.464 1.851 4.761l-2.943.379.09 1.542 8.677 8.145c-.018-4.401-.035-7.976-.048-11.019 3.263 1.461 6.555 3.587 9.695 4.09 1.794.287 3.12 1.977 4.87 6.627-.734.511-1.283 1.486-1.91 1.225-1.955-.819-3.938-2.102-6.284-3.417l1.627 7.098-4.159-.229c1.178 3.9 1.595 8.424 2.98 4.977 1.457-3.636 1.852 1.49 2.794 4.655.692-1.223 1.68-1.894 2.03-3.807.795-4.34 2.052-3.914 3.915-1.667 2.977 3.599 5.85 5.49 8.02.583 1.184-2.684 2.51-1.689 3.766 3.388.315 1.273.772 2.364 1.694 5.137l.073-7.574 3.281.746c-.594-2.957-1.134-4.98-1.386-7.026-.65-5.263.091-5.291 2.222-3.653 1.673 1.292 3.867 5.025 5.07.14.53-2.14 1.554-3.176 2.51-5.014.804 3.12 1.572 6.085 2.313 8.971 2.291-.357 2.291-.357 3.825-5.23 3.525.876 7.593 5.704 9.697-1.789 2.538 1.778 4.996 4.611 7.187 4.827 6.112.594 12.11.067 18.162.078.982 0 2.05-.23 3.027.88 4.021 4.568 7.737 6.258 11.118 2.961.606-.596 1.544.392 2.288.364 3.47-.133 6.942-.261 10.377-.677.552-.071.915-1.597 1.377-2.405.897-1.569 1.803-3.108 2.705-4.656l.618 1.962-1.207 4.517c3.933 4.404 7.376 2.637 8.602-5.342.537 3.068.927 5.303 1.325 7.565 4.066 1.809 8.308 3.556 12.57 5.673 1.452.723 2.638 1.254 2.974-3.059.097-1.242 1.072-1.174 1.287-2.39.517-2.93.95-3.231 2.095.479.385 1.246 1.446 1.135 2.462 3.287l-2.74 2.974c.407.686.782 1.653 1.127 1.85 2.54 1.458 5.203 6.552 7.62 4.99.555-.359.898-1.885 1.558-3.366.174.537.746 3.026 1.014 3.007.885-.062 2.978 5.448 2.475-1.969-.077-1.135.737-2.032 1.191-2.857.634-1.147 1.318-2.123 2.194-3.51l3.21 2.835c-1.899-7.035-1.899-7.035-5.202-11.56l.502-8.549c.313-1.569.626-3.136.941-4.7 1.316 6.524 1.316 6.524 1.193 12.726l3.138 1.078c-.004 1.171-.009 2.156-.01 3.146 2.793.597 5.612 1.439 8.376 1.723 4.551.464 9.1.842 13.58.667 1.48-.058 2.874-1.434 4.072-3.114 1.135-1.607 2.134-2.899 3.54 1.122 1.424 4.068 2.475 3.285 3.625 1.902 1.585-1.906 3.246-3.498 4.418-4.74.555-2.477.755-5.42 1.31-5.463 1.596-.12 1.43 4.156 1.896 7.38 2.411-.012 4.662.178 7.266 3.384 1.364 1.687 3.003-1.508 4.52-2.49 2.757-1.785 5.872-1.468 8.375-4.793.521-.694 1.602 1.043 2.361 1.072 2.27.087 4.97 2.36 5.861-4.899 2.913 5.483 5.621 9.81 7.786 4.439l1.631 5.474 4.85 1.425c1.166-8.73 2.85-15.91 8.067-12.055l-2.152-9.399c2.806-1.286 5.565-.301 8.67 6.397.47 2.862 1.011 6.168 1.65 10.086 1.987.907 4.004 2.482 5.297 8.86 1.992-1.312 3.9 3.642 5.878 5.559 1.885-2.678 2.62-7.733 2.38-14.508 1.545 1.874 2.197 3.388 3.066 6.538l6.728 1.186.436 12.77 4.858 7.178c-1.13-7.746-3.194-14.384-1.232-19.504 1.535 2.45 1.586 7.498 2.927 12.1l3.112 3.275c.69-4.036-2.483-13.097 1.173-12.49l.673 13.356c2.29-5.216 6.635 1.62 7.132-11.489-2.214 3.494-3.315 8.716-6.276 5.968.818-3.061 1.347-6.603 2.37-8.476 1.257-2.306 2.38-5.697 4.81-2.554 2.324 3.007 4.495 3.228 5.856-1.65.835-2.992 2.033-.926 3.232 2.119.012 2.827.018 5.784.028 8.643.46.61.812 1.32.898 1.154 1.942-3.807 4.48-2.151 6.977 1.23 2.675 3.619 3.19-2.584 4.794-3.71.497-.35.454-3.528.777-6.502.69.02 1.814-.163 2.982.231.332.11 1.037 1.918 1.141 2.91.784 7.642 1.518 2.447 2.407 1.908.375 1.008.838 2.11 1.237 3.348 1.281 3.98 2.336 4.337 3.57 2.479.872-1.31 2.101-1.273 3.372-1.944l.104-3.003c.328.077.605-.112.82.231 3.377 5.42 6.698 9.643 10.234 10.007 2.592.265 5.374 2.472 8.05 3.48 1.54.579 1.618 3.812 2.08 7.167l-1.937-2.235 1.256 9.762c1.114 1.254 2.22 1.818 3.066 3.598 1.694 3.56 3.453 5.587 5.105 5.649 3.427.126 7.067 2.57 10.31.373 1.636-1.107 3.961-.023 5.877 2.213 2.465 2.874 3.826 2.476 4.672-2.79.293-1.823 1.083-2.73 1.67-4.1 1.67 3.364.63 9.003 2.763 11.006 1.382 1.294 2.78.578 3.813 1.642 2.33 2.402 3.753 1.47 5.25-1.157.573-1.004 1.697-.074 2.564-.071 3.54.045 7.485 3.05 10.096-2.361 3.807 5.108-.589 6.904 1.333 11.825l2.934.276.308-7.34c.497.154.881.024 1.25.422 3.085 3.339 3.084 3.367 4.858 11.55l-3.879 4.878c-2.336-2.013-4.18-1.032-5.85 2.51.518 1.857.97 3.456 1.416 5.057l.095 4.91c-6.122-1.544-11.003 3.622-16.893 5.416 3.432 6.294 5.917 2.658 8.5 4.883 2.968 2.558 4.603-3.784 7.981.248-.639 1.546-1.014 2.783-1.508 3.588-2.04 3.326-4.01 6.963-6.21 9.632-1.894 2.29-3.928 4.456-6.147 4.809-2.997.473-5.19 3.72-7.432 8.623.941 2.074 1.99 3.698 2.627 5.994.571 2.05.688 4.846 1.516 7.747.042-1.321.084-2.642.128-3.964.093-2.691-.016-5.627 1.543-4.893.49.23.886-1.69 1.276-2.754 1.354-3.742 3.181-4.601 5.47-3.538 1.262.589 2.532.23 3.648-.508 2.564-1.695 5.011-4.012 7.556-5.811.77-.55 1.694-.288 3.52-.523l-2.027 6.849c-1.109 1.31-2.157 2.935-3.343 3.854-1.582 1.227-3.356 1.525-4.87 3.026-.54.535-.563 3.427-.975 6.342 2.484-.687 4.697 0 6.204-2.093 1.464-2.022 3.852-3.12 2.98-11.144 2.61 5.837 4.8 5.566 6.931 2.274l2.091 8.28c-.846 1.23-1.492 2.896-2.349 3.278-2.393 1.07-4.902 1.43-7.303 2.455-.808.342-1.485 1.649-2.122 2.848-3.446 6.477-7.327 10.766-11.984 11.873-2.984.71-5.735 3-8.624 4.603l-1.212 13.66c1.321-1.34 2.327-2.112 3.22-3.333 1.164-1.585 2.45-1.61 3.935-1.444 2.265.248 4.286-1.906 6.422-2.973 2.873-1.437 5.712-3.106 8.664-4.016.79-.244 2.035.292 2.682 4.714.57 3.888-.264 4.474-.933 5.3-.802.98-1.782 1.22-3.449 2.258l4.885 4.177c4.491-9.258 6.161-13.745 16.666-11.814l-1.455 12.904-3.538 1.007c2.736 8.388-1.329 8.17-.648 14.315.25.385.593.903.931 1.435.34.53.707 1.155 1.224 1.998-.809 3.956-.679 9.605-2.847 9.967-.314.04-.573.977-.712 1.778-1.103 6.359-2.715 8.623-6.17 8.523.566 2.474 1.137 4.965 1.797 7.83 1.785-1.148 3.806-1.768 5.508-3.762 1.457-1.705 2.331-6.056 3.86-7.232 1.353-1.05 3.49 3.23 4.855.544l1.034 2.123zM585.828 120.49l-1.845-6.834c-1.514.52-3.115.968-4.663 1.698-.248.117-.28 1.499-.416 2.315l2.556 3.87-2.01 1.896.21 1.913 7.304 4.988c-1.62-4.76-2.028-7.568-1.137-9.853 1.385 2 2.87 5.33 4.132 5.724 2.638.809 5.204.367 7.47-2.105-1.903-2.002-3.688-2.285-5.469-3.872-1.806-1.61-3.606-4.507-5.576-7.054-.217 2.838-.386 5.078-.556 7.314zM511.49 433.075c-.759-4.454-2.02-7.121-3.628-8.294-1.349-.982-2.69-1.442-4.037-2.59-.834-.711-1.668-2.272-2.843-3.932l2.67-10.964-2.62-2.61-.27 6.429c-4.272-9.061-6.687-10.416-8.64-4.96l6.018 7.792.103 1.876-6.39 2.389-1.325-13.868c-.943 5.16-.37 11.249.067 17.252.022.3-.326.48-.598.854l-2.446-8.164-2.583 5.635c-.238-4.246.077-7.13.27-10.166.03-.457-.514-1.644-1.05-3.277l-.643 6.88-2.159-7.115c.293 10.568-1.659 16.844-.693 26.77.284 2.93-.836 5.697-1.339 8.484-.286 1.59-.629 3.055-.935 4.524 3.538 8.38 5.774 10.3 6.281 4.523.492-5.61 1.911-5.32 3.493-5.63 3.562-.717 7.34.24 10.06-5.8 1.276-2.83 3.483-2.778 5.31-4.07l-1.813-2.93c3.284-1.303 7.273 7.81 9.74.962zm60.157-64.945c.945.892 1.455 1.417 1.965 1.846.635.53 1.268.982 1.748 1.35.111-2.312-.026-5.08.295-5.263 3.293-1.905 5.972-8.094 10.408-2.251l.36-13.734c-2.604.335-5.13-.226-7.285 1.196-1.82 1.213-4.084 3.39-4.537 7.625-.437 4.118-1.175 4.746-2.363 5.435-.256.163-.275 1.655-.59 3.796zm14.188-63.106l-1.518 1.415c4.545 2.897 6.944-8.486 11.781-1.292l.428-11.233c2.748 7.817 4.932 6.033 7.197 4.395l-.593-11.962c-1.73 7.3-1.918 7.477-5.309 5.822-.666-.326-1.358-.843-1.987-.832-2.062.032-4.095.4-5.09 5.173-1.389 6.654-2.39 7.369-5.662 3.69-.133-.15-.302.558-.453.878.392 1.268.783 2.55 1.206 3.946zm33.102-20.866l.458 2.45c1.052.708 2.58 2.908 3.071 1.852 1.688-3.623 4.174-1.53 6.161-2.763.57-.354 1.616-.986 1.565-1.373-.915-7.02 1.996-5.896 2.323-10.803-.57-.846-1.193-2.354-1.522-2.172-4.437 2.44-8.344 7.213-12.053 12.809h-.003zm-1.345 58.185c-1.034-1.206-2.072-2.702-3.1-3.515-.907-.718-1.71 3.815-3.017-3.786.083 5.243-1.475 7.51.278 13.529 1.946-2.491 5.582 3.279 5.841-6.228h-.002zm-37.915 27.076l-.643 9.83c2.86 5.492 3.924-1.21 6.18.552-1.53-6.748-3.52-8.21-5.534-10.383h-.003zm12.228-37.372l6.86 6.537-1.149-8.92-2.447-3.163-3.264 5.546z" fill-opacity=".8"/></svg>