<svg width="778" height="225" preserveAspectRatio="none" xmlns="http://www.w3.org/2000/svg"><path d="M774.72 142.265c2.235 4.494 2.175 4.653-2.505 6.586-.345 1.458-.082 2.346 1.635 2.605 2.535.383 3.008 1.044 2.64 3.232-.285 1.733-.765 3.433-1.252 5.558-3.675.33-6.54 2.908-9.645 5.708-.053.624.277 2.442-.338 2.912-1.957 1.48-.885 3.008-.217 4.59-7.155.438-7.17 6.007-7.875 11.035l-5.385 1.332c-.18-.981-.345-1.858-.51-2.736l2.925-2.745-5.066-5.788-3.171 4.346 4.764.568-.382 2.664-3.68.279c.174.926.873 2.364.454 2.973-.593.86-1.967 1.324-3.088 1.577-3.913.878-7.582 2.156-11.207 4.102-1.859.998-1.42 1.939-1.773 3.66-1.448-.177-3.072-.023-4.344-.637-1.088-.523-2.89 1.952-3.236-.878h-4.619v-2.115l-3.379.964 1.624 4.07c2.26 1.638 6.123-.6 7.624 3.643 3.187-3.163 6.904-1.536 10.331-1.942.545-.064 1.228 1.135 1.847 1.75-1.973 1.513-.034 3.41-.352 5.165-.247 1.366.916 3.117 1.746 4.507.223.374 1.525.057 2.173.057l6.538 4.353c-1.786 1.182-3.58 2.592-5.556 3.622-3.137 1.646-5.892 5.004-10.047 2.808-3.292.912-6.637 1.661-9.854 2.8-1.829.646-3.477 1.386-5.372.405-.388-.201-.984-.315-1.356-.154-4.374 1.892-8.582.06-12.852-.52-.741-.1-1.824-.463-2.194-.1-3.073 3.028-7.109.963-10.534 2.227-1.435.53-3.147.264-4.824-.897-1.283-.888-3.477-.46-5.265-.44-1.228.012-2.448.356-3.678.493-7.272.811-14.611.39-21.796-.261-5.32-.482-10.43-.07-15.65.22-2.441.132-5.029-.064-7.345-.802-1.902-.605-1.515 1.667-2.731 1.58-2.562-.184-5.127-.391-7.693-.453-3.236-.078-6.474-.019-9.976-.019-.972-1.597-2.156-3.007-5.11-2.68-1.763.196-4.027.693-6.163-.785-1.175-.812-3.65.396-6.454.839-1.75-.981-4.149-2.779-7.194-3.545-2.38-.6-4.973-2.098-5.119-5.274-3.12-.365-5.51.357-7.72 2.388-1.63 1.5-3.717 2.016-6.079 1.25-1.255-.407-2.795-.139-4.154.122-4.345.834-4.58.885-9.579-.161v-1.74c-2.618-.24-4.662.23-6.751 2.206-2.166 2.054-4.786 4.247-8.219 3.652-2.128-.37-4.22-.988-6.712-1.58.94-2.76.81-5.21-2.181-7.106-5.358-1.176-9.914.597-12.086 7.33l-3.872-1.793c-1.705 1.402-3.766 2.462-6.177 1.04-.256-.15-.652-.256-.908-.163-3.415 1.257-6.396-1.24-9.723-1.207-1.695.015-3.465-1.219-5.096-2.098-4.425-2.384-9.152-2.666-13.985-2.379-3.992.239-7.994.383-11.973.8-1.815.19-3.574.937-6.154 1.646-2.056-1.044-4.778-2.432-7.506-3.803-.552-.28-1.114-.666-1.695-.723-4.018-.397-8.038-.945-12.064-1.019-8.595-.155-17.195-.07-25.792-.042-2.42.008-4.693-.13-6.145-2.598-.294-.499-.92-.973-1.468-1.098-3.06-.673-5.772-1.854-8.486-3.654-2.022-1.34-5.085-1.078-7.706-1.355-4.301-.455-8.617-.769-13.465-1.193l-.779 1.333c-1.504-2.7-4.026-3.073-6.675-3.088-5.471-.028-10.942 0-16.413-.036-1.207-.009-2.649.18-2.542-2.435l11.166-3.033c-.006-.132-.01-.262-.018-.394-2.136.148-4.383-.092-6.386.52-5.344 1.637-10.774 1.481-16.225 1.511-4.027.024-8.053.182-12.632.294l-1.179-2.002c-5.418 0-10.966-.029-16.515.052-.46.006-.91.744-1.673 1.413l2.637 1.985c-1.378.877-2.677 2.375-4.081 2.485-5.404.426-10.842.49-16.268.512-2.014.008-2.101-1.472-1.42-3.461 4.953 1.536 9.406-1.044 14.844-1.882-1.06-1.035-1.644-2.117-2.243-2.122-4.04-.038-8.205-.452-12.092.409-5.69 1.26-11.231 2.324-17.313.307v4.077c-2.811-1.796-4.98-3.726-7.496-4.641-2.551-.929-5.472-.702-8.178-1.256-5.828-1.192-11.678-1.473-17.516-.563-2.18.34-4.224 1.608-6.745 2.619l-.823-1.74c-2.437-.439-4.864-1.043-7.319-1.253-2.322-.195-4.92-.605-6.951.234-2.362.974-4.375-.988-6.806.25-1.723.88-4.364-1.659-6.873.624l2.485 2.901c-.983 4.435-4.57 3.293-7.17 4.077-4.4-4.171-9.48-6.95-14.895-9.388-3.911-1.756-8.052-2.165-12-3.549-2.57-.903-5.201-.695-7.755 1.413 3.27 2.765 8.36 1.866 11.2 6.125-2.225.768-4.556.064-6.084 1.866-.213.253-.93.219-1.354.093-4.407-1.265-8.869-.812-13.327-.54-.453.026-.992.133-1.351-.067-3.844-2.137-7.935-.942-12.024-.775l8.639 3.022-3.052 4.026c-5.14.796-9.641-3.732-15.54-3.336 1.69 4.652 5.943 3.68 8.777 5.648-.107 1.317-.213 2.68-.344 4.27l-7.764 2.098-.664-1.866c-5.141-.37-10.039-.717-14.94-1.085-.299-.024-.575-.282-.877-.33-6.262-1.03-8.82-2.133-14.483-5.983-1.148-.78-2.535-1.18-3.796-1.748-.628-3.783-2.1-5.733-6.203-4.61-4.075 1.11-6.965-1.668-10.514-1.383-.53.044-1.09-.417-1.608-.363-2.331.24-4.337 2.03-7.109.353-1.639-.988-4.296-.182-6.69-.182-.563-1.779-.823-3.593-1.685-5.014-.704-1.158-2.13-1.845-3.645-3.074 1.689-.415 3.198-.549 4.476-1.184.826-.411 1.646-1.478 1.836-2.391.125-.605-.717-1.756-1.399-2.139-1.34-.758-2.86-1.181-4.324-1.688-1.377-.479-2.784-.888-4.177-1.329.026-.389.052-.778.08-1.167l7.508-1.073c0 .62-.196 1.618.033 1.738 1.337.694 2.736 1.393 4.19 1.67.994.19 2.135-.219 3.166-.52 1.919-.565 3.806-1.249 6.024-1.99l-.929-2.05 4.162-.336a888.14 888.14 0 00-1.412-2.524c2.616.817 4.379 1.224 6.636-.67 2.87-2.408 6.495-3.273 10.423-2.723l-2.281-1.478h4.017c-3.06-1.506-6.003-2.489-9.364-.988-1.054.468-2.967-.384-4.133-1.183-1.06-.729-1.653-2.206-2.618-3.595-2.854 3.125-6.312 2.604-10.309 1.154-2.967-1.076-6.408-.7-9.626-1.077a11.487 11.487 0 01-4.262-1.366c1.49-1.295 3.158-.843 4.721-.923 1.563-.08 3.239-.4 4.662.057 3.484 1.115 5.086-.574 6.096-3.809-.645-.05-1.26-.18-1.86-.127-1.72.152-2.84-.462-4.188-1.794-2.488-2.459-6.125-2.79-9.311-3.922-1.313-.467-2.713-.666-3.561-.867-1.55.852-2.666 1.8-3.92 2.098-5.032 1.198-9.911 1.044-14.147-3.048l4.121.501c.507-3.023-2.046-2.756-3.504-3.322-1.23-.478-2.713-.257-4.084-.345l-1.907-.96c-.482-.793-.966-1.584-1.662-2.725l-5.036 1.158-3.188-4.72c-1.299.053-3.156 2.033-4.825-.374l1.187-3.172c-3.691 1.098-7.333-1.207-10.36 1.756L0 125.638l3.22-3.17-1.748-.988.469-3.486c.348-.128.636-.343.875-.303 1.668.266 3.034.744 4.395 2.179 2.894 3.05 6.52 5.16 10.555 6.381.963.292 1.053.761.667 2.227 2.678.858 5.955-1.544 8.626 2.012-1.52.204-2.687.36-3.854.518.175 1.494 2.622 1.554 5.474.141l6.88 3.373c-1.637.319-3.316.584-3.73 2.964 2.79 2.115 5.821 1.339 8.832 1.126-1.248-.998-2.663-1.521-3.937-2.294-.542-.329-.788-1.181-1.165-1.796 3.532.491 7.233-.538 11.775 1.098l-3.62 1.282c1.212 1.045 3.634.057 3.795 2.77.03.52 2.072 1.324 3.158 1.279 2.6-.11 5.184-.64 8.842-1.151l-3.949-2.04c.801-1.844 1.793-3.97-.53-5.642-.06-.043.608-1.177.969-1.866-3.43-2.32-6.87-3.453-10.741-3.205-1.99.127-1.997.008-4.706-2.465 3.463-2.316 6.981 1.61 10.573-.357v-3.357c2.525-.53 3.458-3.08 4.905-4.998.592-.789.46-2.697-.042-3.732-1.377-2.854-3.123-5.51-4.826-8.42l3.64-.588c-.33-.775-.572-1.348-.848-1.987l2.426-1.686-2.897-.5c.142-1.567.28-3.102.449-4.954-1.855.054-2.199-3.53-5.355-1.683 1.264-2.705-2.96-4.34-.236-7.254l-3.513-2.162-1.508 3.499-.93-.33-1.673-5.175-1.702 1.556 1.648-.877c-1.26-.758-2.984-1.617-2.026-3.235.725-1.228 2.1-2.043 3.247-3.098l-2.633-2.854 6.437.898-1.052-3.455c.79-1.214 3.529-1.547 1.988-4.212.717-.335 1.401-.732 2.133-.988 2.732-.942 3.768-3.16 4.041-5.858a18.02 18.02 0 00-.049-4.24c-.423-3.017 1.506-4.86 3.325-6.346 2.393-1.955 5.254-3.293 7.847-4.854.106-.41.287-.73.24-1.008-.828-4.789-.714-5.055 3.242-7.413.808-.482 1.907-.808 2.337-1.542 2.587-4.449 7.336-3.842 11.318-5.437-.252-.528-.395-1.419-.797-1.57-1.919-.723-4.725.363-5.298-2.964l-6.48-1.744c1.467-3.967 4.65-.968 6.329-2.28 1.318 1.355 2.382 2.508 3.519 3.58.317.294.847.34 1.466.571l2.095-2.27-1.553-.865c.768-1.085 3.56-.058 2.67-2.887-1.866-1.24-5.169.415-6.297-3.114.735-1.952 2.721-2.178 4.6-2.802 2.065-.688 4.883-.579 4.799-3.94 1.653 0 3.046-.22 4.344.065 1.094.237 2.397 1.778 3.049 1.472 2.681-1.262 1.535 1.695 2.833 2.305.348-3.38 4.294-2.195 5.483-4.754.064-.135.713-.19.793-.07 1.459 2.19 2.99.554 4.539.161l-5.102-4.35c3.363-.701 6.065-2.236 9.084-1.586 2.362.51 4.523.306 6.873-.236 3.285-.757 6.765-1.366 9.802 1.193.433.365 1.185.31 1.781.48 4.85 1.379 5.11 1.695 5.5 6.959 3.134-1.912 6.058-.878 8.9.394 1.13 2.914-1.574 1.543-2.449 2.62l1.437 3.48c2.12-.344 4.12-.508 6.03-1.016 2.349-.624 2.876-2.58 2.508-5.1l9.796-1.662c2.175 1.668 4.324 4.222 7.984 4.327.855.024 2.437 2.295 2.315 3.368-.251 2.235.626 2.656 2.312 2.898.838.12 1.64.495 2.543.781 1.377-.915 2.774-2.256 4.421-2.836 2.187-.768 3.89-1.782 4.362-4.314.726.213 1.336.194 1.57.491 2.12 2.7 5.298 2.712 7.514 1.478 3.44-1.914 6.974-.483 10.54-1.9l1.528-4.06c1.015 1.764 4.108.402 4.48 4.1l1.973-3.658 6.569 2.164c1.666-1.67 4.008-1.255 6.463-.658 1.945.475 3.967.636 5.963.864 1.083.123 2.28-.19 3.257.177 6.347 2.38 12.932 1.923 19.445 1.694 4.064-.143 7.572 1.667 11.35 2.48.488.105.8 1.098 1.495 2.119h-3.608l-.13.659 9.2 3.924c.662-1.866 1.196-3.382 1.652-4.672 3.71.797 7.35 1.877 11.058 2.261 2.12.22 3.456 1.008 4.844 3.074-.963.176-1.777.56-2.492.414-2.23-.453-4.423-1.105-7.049-1.79.4 1.441.599 2.15.861 3.097l-4.98-.324c.816 1.717.617 3.656 2.82 2.27 2.324-1.46 2.005.733 2.65 2.126 1.024-.48 2.319-.711 3.039-1.503 1.631-1.796 3.082-1.546 4.98-.493 3.032 1.687 6.203 2.646 9.58.684 1.845-1.072 3.29-.578 4.018 1.641.182.557.564 1.044 1.247 2.269l1.263-3.205 3.84.495c-.258-1.285-.594-2.172-.582-3.053.033-2.265.932-2.237 3.247-1.427 1.817.64 3.884 2.34 6.093.336.971-.878 2.367-1.26 3.804-1.987.486 1.365.953 2.663 1.398 3.927 2.819-.026 2.819-.026 5.425-2.008 4.115.563 8.273 2.831 11.973-.23 2.784.892 5.309 2.227 7.918 2.438 7.28.585 14.593.688 21.893 1.023 1.183.053 2.506.014 3.513.537 4.141 2.155 8.36 3.074 12.95 1.86.823-.219 1.8.251 2.702.28 4.205.133 8.413.268 12.62.279.677 0 1.351-.627 2.034-.944 1.326-.616 2.656-1.219 3.985-1.826l.441.865-2.158 1.849c4.06 2.08 8.487 1.519 11.204-1.795.172 1.33.295 2.297.424 3.277 4.623.988 9.47 1.96 14.279 3.09 1.64.384 2.988.674 4.063-1.135.309-.521 1.474-.439 1.923-.943 1.077-1.212 1.646-1.317 2.451.318.271.548 1.568.56 2.46 1.526l-3.765 1.111c.384.313.687.743 1.07.845 2.837.757 5.26 3.06 8.416 2.53.726-.121 1.377-.75 2.403-1.34.126.236.43 1.322.755 1.328 1.078.022 2.747 2.471 3.29-.699.083-.485 1.205-.82 1.88-1.146.944-.45 1.92-.827 3.19-1.367l3.431 1.376c-1.198-3.084-1.198-3.084-4.478-5.182l1.93-3.595 1.865-1.94c.575 2.836.575 2.836-.535 5.457l3.618.628c-.188.496-.346.913-.503 1.333 3.278.405 6.547.915 9.836 1.186 5.417.445 10.844.853 16.274 1.023 1.794.056 3.69-.451 5.394-1.098 1.62-.619 3.024-1.111 4.096.669 1.086 1.801 2.475 1.527 4.076 1.003 2.208-.721 4.459-1.305 6.064-1.767 1.054-1.02 1.75-2.256 2.427-2.244 1.944.037 1.08 1.839 1.143 3.23 2.909.127 5.595.33 8.237 1.83 1.384.79 3.856-.475 5.837-.808 3.602-.606 7.31-.302 10.844-1.574.737-.266 1.77.529 2.682.582 2.723.16 5.627 1.271 7.829-1.756 2.662 2.482 5.257 4.463 8.701 2.305l1.119 2.408 5.625.869c2.762-3.636 5.906-6.586 11.601-4.669l-1.137-4.1c3.584-.391 6.758.176 9.464 3.184.12 1.238.261 2.668.423 4.363 2.257.493 4.446 1.27 5.016 4.042 2.606-.446 4.138 1.757 6.226 2.677 2.689-1.032 4.358-3.134 5.121-6.018 1.573.878 2.124 1.556 2.684 2.938l7.93.869-1.456 5.434 4.746 3.306c-.162-3.343-1.621-6.268 1.54-8.33 1.47 1.121.75 3.263 1.652 5.285l3.246 1.558c1.458-1.673-.963-5.685 3.352-5.228l-1.26 5.696c3.57-2.086 7.75 1.048 10.384-4.48-3.213 1.36-5.351 3.513-8.495 2.187 1.461-1.253 2.65-2.725 4.173-3.462 1.874-.91 3.753-2.284 6.197-.82 2.336 1.4 4.92 1.612 7.318-.38 1.472-1.223 2.596-.282 3.57 1.073-.424 1.2-.876 2.453-1.308 3.664.46.284.776.604.905.538 2.932-1.507 5.736-.667 8.224.901 2.664 1.68 4.246-.92 6.357-1.31.653-.121 1.095-1.47 1.945-2.712.829.046 2.213.03 3.56.26.384.064.954.869.925 1.295-.24 3.28 1.452 1.12 2.608.94.295.447.682.939.971 1.486.929 1.756 2.145 1.964 3.92 1.244 1.256-.507 2.733-.424 4.37-.64l.592-1.266c.383.05.747-.014.953.142 3.232 2.481 6.582 4.451 10.79 4.798 3.084.254 6.098 1.34 9.168 1.913 1.766.33 1.36 1.704 1.397 3.15l-1.99-1.052v4.205c1.15.592 2.395.891 3.14 1.691 1.491 1.6 3.299 2.556 5.28 2.672 4.114.24 8.126 1.474 12.377.72 2.145-.38 4.78.206 6.745 1.258 2.526 1.352 4.23 1.258 6.067-.928.636-.756 1.73-1.097 2.649-1.646 1.494 1.517-.636 3.85 1.626 4.814 1.465.624 3.263.396 4.344.903 2.437 1.145 4.297.828 6.508-.204.847-.394 2.062.062 3.105.11 4.26.212 8.557 1.7 12.547-.45 3.795 2.372-1.785 2.893-.232 5.083l3.495.277 1.515-3.093c.57.092 1.057.058 1.44.247 3.202 1.583 3.195 1.595 4.065 5.159l-5.43 1.854c-2.505-.98-4.883-.665-7.448.746.338.814.638 1.516.923 2.22l-.645 2.085c-7.148-.988-13.83.935-21.216 1.374 3.164 2.854 6.726 1.449 9.493 2.532 3.188 1.246 6.143-1.352 9.585.54-1.005.62-1.65 1.124-2.37 1.438-2.977 1.299-5.917 2.732-8.985 3.743-2.64.867-5.43 1.674-8.16 1.702-3.69.038-6.838 1.294-10.301 3.25.814.929 1.825 1.674 2.239 2.682.37.9.077 2.091.626 3.365.255-.558.511-1.115.769-1.673.53-1.135.854-2.385 2.62-1.988.554.124 1.33-.668 1.966-1.098 2.214-1.511 4.55-1.776 7.145-1.201 1.431.318 3.021.236 4.476-.016 3.36-.579 6.668-1.428 10.02-2.05 1.013-.191 2.085-.03 4.32-.03l-3.502 2.79c-1.545.496-3.06 1.127-4.628 1.452-2.1.433-4.29.463-6.345 1.016-.735.198-1.215 1.422-2.16 2.635 3.105-.156 5.663.256 7.808-.55 2.077-.776 5.13-1.111 5.317-4.558 2.243 2.615 4.928 2.62 8.01 1.34.405 1.192.81 2.376 1.238 3.623-1.215.475-2.25 1.145-3.338 1.26-3.052.323-6.135.34-9.195.643-1.027.101-2.04.618-3 1.091-5.16 2.556-10.504 4.163-16.294 4.377-3.708.139-7.381.96-11.114 1.481l-3.581 5.722c1.8-.496 3.134-.769 4.4-1.237 1.65-.608 3.204-.549 4.97-.397 2.694.228 5.466-.575 8.206-.91 3.689-.452 7.368-1.005 11.073-1.23.99-.06 2.408.236 2.505 2.144.083 1.678-1.012 1.881-1.95 2.196-1.117.37-2.34.419-4.507.768l5.242 2.036c6.855-3.678 9.563-5.489 21.93-4.097l-3.757 5.388-4.418.234c1.995 3.703-2.872 3.389-3.007 6.03.24.177.577.414.9.658.33.244.675.528 1.17.914-1.59 1.632-2.31 4.032-4.98 4.068-.383 0-.848.382-1.133.714-2.317 2.634-4.612 3.506-8.767 3.275.3 1.079.6 2.166.952 3.416 2.333-.39 4.868-.542 7.23-1.295 2.018-.642 3.75-2.438 5.775-2.853 1.793-.37 3.705 1.558 5.768.495l.922.956zm-40.327-63.158l-1.165-2.997c-1.907.139-3.907.24-5.887.466-.318.036-.57.62-.86.958l2.48 1.78-2.716.693-.046.822 8.036 2.51c-1.216-2.104-1.271-3.316.158-4.236 1.36.923 2.634 2.415 4.095 2.651 3.056.486 6.22.44 9.335-.485-1.984-.952-4.093-1.17-5.995-1.939-1.927-.78-3.649-2.106-5.63-3.292l-1.805 3.069zM596.246 207.499c-.225-1.929-1.332-3.127-3.09-3.712-1.473-.49-3.021-.758-4.466-1.317-.895-.347-1.66-1.054-2.818-1.821l4.919-4.5-2.755-1.248-1.322 2.709c-3.746-4.073-6.449-4.779-9.65-2.574l6.05 3.63-.168.8-8.078.664.555-5.947c-1.938 2.134-2.192 4.746-2.596 7.313-.02.128-.467.185-.854.33l-1.683-3.593-3.989 2.247c.37-1.813 1.198-3.017 1.902-4.293.106-.192-.364-.725-.758-1.445l-1.844 2.88-1.499-3.133c-1.286 4.493-4.614 7.047-4.989 11.305-.11 1.257-1.891 2.368-2.93 3.522-.592.658-1.232 1.26-1.83 1.866 2.966 3.744 5.366 4.679 6.874 2.259 1.463-2.35 3.13-2.15 5.085-2.196 4.407-.11 8.815.502 13.032-1.908 1.979-1.13 4.633-.988 7.036-1.437l-1.732-1.34c4.163-.373 7.56 3.706 11.598.94zm82.626-24.239c1.002.43 1.534.68 2.083.89.683.258 1.378.485 1.9.667.492-.974.755-2.154 1.171-2.214 4.267-.628 8.458-3.104 12.902-.386l2.563-5.8c-3.19 0-6.15-.376-8.97.11-2.383.414-5.451 1.213-6.654 2.983-1.166 1.72-2.154 1.947-3.693 2.174-.334.055-.59.686-1.302 1.576zm26.9-25.965l-2.05.517c5.033 1.475 9.692-3.217 14.41.094l2.257-4.736c2.103 3.462 5.013 2.825 8 2.254.385-1.725.718-3.217 1.14-5.1-3.22 2.998-3.473 3.063-7.307 2.178-.752-.175-1.506-.432-2.267-.462-2.492-.099-5-.054-6.942 1.914-2.706 2.745-4.026 2.993-7.4 1.257-.137-.072-.45.219-.682.346.275.559.548 1.123.842 1.738zm43.16-7.037l.172 1.063c1.159.357 2.659 1.373 3.416.952 2.595-1.443 5.273-.42 7.86-.836.743-.118 2.1-.329 2.1-.495-.015-3.024 3.323-2.39 4.478-4.452-.555-.389-1.073-1.062-1.5-1.002-5.73.792-11.183 2.6-16.523 4.77h-.003zm-10.65 24.58c-1.059-.568-2.079-1.258-3.193-1.659-.981-.353-2.655 1.524-3.05-1.768-.714 2.226-2.944 3.102-1.764 5.748 2.734-.95 6.224 1.693 8.01-2.32h-.002zm-49.925 9.406l-2.301 4.13c2.596 2.483 4.92-.298 7.368.57-.8-2.942-2.973-3.67-5.064-4.7h-.003zm20.544-15.169l7.258 3.144v-3.841l-2.461-1.475-4.797 2.172z" fill-opacity=".8"/></svg>