<svg width="1135" height="434" xmlns="http://www.w3.org/2000/svg"><path d="M1130.563 267.158c3.39 8.833 3.31 9.148-3.46 13.07-.45 2.89-.05 4.636 2.46 5.113 3.71.702 4.43 1.998 3.95 6.33-.37 3.43-1.01 6.8-1.66 11.01-5.36.73-9.46 5.886-13.91 11.486-.06 1.233.48 4.82-.41 5.762-2.81 2.968-1.2 5.964-.18 9.074-10.42 1.021-10.28 12.025-11.16 21.98l-7.82 2.745c-.3-1.935-.57-3.665-.83-5.396l4.19-5.486-7.56-11.33-4.5 8.657 6.97 1.02-.48 5.271-5.36.63c.28 1.827 1.34 4.654.75 5.867-.84 1.713-2.84 2.658-4.46 3.183-5.68 1.82-11 4.422-16.23 8.346-2.68 2.011-2.02 3.861-2.48 7.27-2.12-.319-4.48.022-6.36-1.165-1.6-1.012-4.15 3.92-4.74-1.666l-6.74.1-.06-4.18-4.9 1.976 2.49 8.01c3.34 3.188 8.91-1.318 11.22 7.036 4.56-6.32 10.03-3.185 15.02-4.06.79-.138 1.82 2.216 2.74 3.417-2.83 3.034.05 6.74-.36 10.215-.32 2.704 1.42 6.141 2.68 8.87.33.734 2.22.08 3.17.065l9.66 8.463c-2.57 2.374-5.15 5.198-8 7.277-4.53 3.321-8.45 10.015-14.57 5.764-4.78 1.873-9.64 3.426-14.3 5.745-2.64 1.316-5.03 2.814-7.82.915-.57-.389-1.44-.6-1.98-.274-6.33 3.833-12.52.303-18.76-.753-1.09-.184-2.68-.876-3.21-.15-4.39 6.048-10.34 2.054-15.3 4.626-2.08 1.08-4.58.591-7.06-1.67-1.9-1.728-5.088-.833-7.695-.755-1.791.05-3.561.755-5.351 1.053-10.584 1.758-21.302 1.083-31.801-.049-7.776-.839-15.218.084-22.821.77-3.56.314-7.34-.019-10.74-1.427-2.792-1.154-2.16 3.327-3.937 3.186-3.743-.313-7.49-.668-11.235-.735-4.723-.084-9.444.102-14.552.177-1.465-3.137-3.233-5.897-7.534-5.187-2.564.424-5.852 1.455-9.011-1.419-1.738-1.58-5.313.861-9.391 1.796-2.582-1.902-6.132-5.404-10.596-6.852-3.488-1.134-7.315-4.039-7.621-10.313-4.56-.653-8.026.825-11.191 4.885-2.335 2.998-5.363 4.065-8.831 2.601-1.843-.778-4.082-.215-6.058.33-6.312 1.742-6.654 1.847-13.976-.113l-.05-3.438c-3.826-.417-6.794.555-9.784 4.504-3.1 4.105-6.858 8.495-11.883 7.393-3.116-.685-6.183-1.862-9.837-2.98 1.29-5.473 1.03-10.31-3.388-13.995-7.85-2.209-14.445 1.392-17.416 14.746l-5.701-3.46c-2.446 2.807-5.421 4.945-8.98 2.185-.377-.29-.96-.49-1.33-.3-4.944 2.555-9.366-2.315-14.218-2.179-2.472.067-5.09-2.333-7.493-4.036-6.525-4.616-13.428-5.072-20.47-4.4-5.817.556-11.65.926-17.441 1.835-2.642.415-5.188 1.93-8.931 3.386-3.028-2.019-7.04-4.702-11.06-7.355-.812-.539-1.642-1.29-2.492-1.393-5.872-.697-11.752-1.695-17.627-1.754-12.542-.122-25.085.23-37.624.47-3.53.067-6.85-.155-9.04-5.002-.442-.979-1.37-1.905-2.172-2.138-4.483-1.266-8.474-3.54-12.485-7.039-2.99-2.607-7.45-2.02-11.28-2.513-6.288-.808-12.592-1.334-19.676-2.07l-1.098 2.653c-2.273-5.302-5.962-5.988-9.826-5.96-7.982.062-15.962.233-23.943.28-1.762.01-3.86.412-3.78-4.757l16.202-6.233-.038-.778c-3.111.338-6.396-.089-9.301 1.165-7.748 3.348-15.674 3.157-23.624 3.334-5.873.132-11.741.531-18.418.85l-1.777-3.93c-7.903.115-15.998.178-24.09.455-.67.023-1.304 1.49-2.4 2.83l3.905 3.865c-1.983 1.765-3.836 4.751-5.881 4.998-7.87.958-15.801 1.202-23.715 1.362-2.936.06-3.107-2.864-2.171-6.81 7.269 2.93 13.69-2.265 21.598-4.037-1.576-2.022-2.46-4.147-3.334-4.144-5.894.01-11.981-.718-17.627 1.066-8.263 2.612-16.315 4.835-25.245.978l.118 8.058c-4.152-3.49-7.372-7.257-11.07-9.012-3.748-1.78-8.002-1.269-11.965-2.306-8.535-2.23-17.076-2.66-25.566-.737-3.17.72-6.115 3.268-9.764 5.32-.23-.624-.788-2.158-1.25-3.42-3.568-.816-7.126-1.959-10.713-2.319-3.392-.338-7.193-1.092-10.133.61-3.417 1.976-6.411-1.859-9.92.642-2.49 1.772-6.414-3.186-10.008 1.38l3.709 5.68c-1.304 8.783-6.57 6.604-10.342 8.21-6.538-8.15-14.028-13.53-21.998-18.234-5.757-3.387-11.81-4.105-17.606-6.756-3.778-1.73-7.61-1.26-11.273 2.958 4.849 5.394 12.249 3.508 16.516 11.864-3.223 1.566-6.644.223-8.822 3.817-.301.506-1.35.454-1.972.214-6.465-2.407-12.96-1.415-19.455-.784-.66.064-1.443.286-1.973-.1-5.67-4.142-11.602-1.692-17.561-1.275l12.688 5.787-4.334 8.021c-7.476 1.683-14.173-7.168-22.765-6.258 2.599 9.156 8.774 7.145 12.966 10.974-.117 2.605-.232 5.301-.377 8.445l-11.265 4.311-1.023-3.673c-7.51-.618-14.665-1.2-21.824-1.825-.436-.039-.847-.543-1.29-.632-9.164-1.902-12.926-4.025-21.3-11.513-1.696-1.515-3.731-2.275-5.587-3.372-1.026-7.463-3.231-11.286-9.183-8.977-5.912 2.283-10.207-3.148-15.376-2.508-.772.096-1.601-.8-2.357-.683-3.393.525-6.267 4.106-10.36.85-2.419-1.918-6.271-.267-9.764-.216-.873-3.504-1.304-7.084-2.603-9.874-1.06-2.274-3.16-3.599-5.406-5.996 2.451-.856 4.648-1.153 6.494-2.436 1.193-.829 2.359-2.955 2.609-4.764.165-1.197-1.096-3.455-2.103-4.197-1.975-1.468-4.207-2.273-6.356-3.244-2.023-.916-4.087-1.695-6.132-2.535.027-.77.054-1.539.083-2.309l10.92-2.28c.019 1.223-.238 3.201.099 3.433 1.97 1.344 4.033 2.696 6.161 3.211 1.455.352 3.108-.479 4.603-1.096 2.783-1.158 5.516-2.55 8.73-4.064l-1.415-4.03 6.062-.753c-.75-1.746-1.441-3.354-2.132-4.958 3.838 1.56 6.42 2.327 9.66-1.466 4.115-4.818 9.379-6.607 15.124-5.602l-3.37-2.873 5.859-.086c-4.507-2.91-8.828-4.79-13.688-1.752-1.523.947-4.34-.695-6.062-2.249-1.567-1.418-2.475-4.325-3.924-7.048-4.073 6.237-9.132 5.28-15.004 2.501-4.36-2.062-9.368-1.247-14.073-1.922-2.181-.303-4.305-1.189-6.257-2.609 2.135-2.59 4.582-1.734 6.86-1.925 2.277-.192 4.713-.859 6.802.012 5.114 2.13 7.402-1.243 8.782-7.657-.942-.084-1.844-.329-2.717-.21-2.506.337-4.156-.852-6.162-3.456-3.7-4.806-9.016-5.383-13.696-7.55-1.929-.894-3.976-1.259-5.22-1.638-2.236 1.716-3.836 3.612-5.657 4.231-7.305 2.475-14.427 2.273-20.725-5.72l6.027.901c.65-5.987-3.065-5.403-5.208-6.49-1.808-.918-3.965-.45-5.968-.594l-2.81-1.857c-.726-1.556-1.454-3.11-2.502-5.35l-7.312 2.398-4.788-9.259c-1.893.132-4.545 4.085-7.05-.636l1.64-6.294c-5.353 2.248-10.732-2.229-15.06 3.692L0 250.91l4.606-6.335-2.58-1.915.583-6.899c.504-.259.918-.69 1.268-.618 2.44.492 4.447 1.406 6.474 4.214 4.31 5.966 9.66 10.055 15.582 12.383 1.414.556 1.559 1.482 1.037 4.386 3.932 1.64 8.643-3.177 12.642 3.791-2.21.436-3.909.77-5.607 1.107.3 2.948 3.87 3.015 7.99.162l10.134 6.518c-2.38.665-4.82 1.223-5.356 5.937 4.131 4.12 8.53 2.521 12.917 2.036-1.85-1.947-3.93-2.949-5.81-4.449-.801-.639-1.184-2.317-1.752-3.524 5.167.894 10.535-1.217 17.208 1.917l-5.242 2.611c1.797 2.04 5.301.035 5.615 5.394.06 1.025 3.062 2.571 4.644 2.46 3.79-.274 7.543-1.379 12.864-2.466l-5.819-3.946c1.115-3.663 2.5-7.886-.937-11.137-.089-.086.852-2.34 1.359-3.709-5.07-4.51-10.122-6.676-15.762-6.105-2.899.294-2.911.06-6.935-4.769 4.983-4.65 10.23 3.03 15.412-.932l-.097-6.635c3.667-1.102 4.955-6.162 7.009-9.983.84-1.57.592-5.337-.169-7.374-2.092-5.61-4.716-10.82-7.284-16.533l5.292-1.24c-.504-1.525-.874-2.655-1.295-3.91l3.49-3.383-4.24-.929c.16-3.098.319-6.133.51-9.798-2.704.148-3.309-6.929-7.86-3.21 1.766-5.373-4.442-8.512-.555-14.33L64.15 165.5l-2.1 6.945-1.366-.63-2.589-10.192-2.438 3.112 2.379-1.77c-1.861-1.47-4.4-3.13-3.05-6.349 1.023-2.44 3.005-4.082 4.647-6.19l-3.924-5.584 9.415 1.636c-.686-2.86-1.14-4.745-1.635-6.806 1.118-2.416 5.103-3.13 2.779-8.365 1.035-.677 2.022-1.477 3.082-1.998 3.957-1.922 5.404-6.325 5.725-11.663.179-2.79.113-5.603-.194-8.378-.706-5.954 2.055-9.637 4.665-12.613 3.433-3.914 7.569-6.62 11.305-9.76.143-.813.398-1.448.32-1.996-1.346-9.446-1.187-9.975 4.514-14.72 1.166-.97 2.759-1.637 3.365-3.097 3.645-8.847 10.59-7.75 16.352-10.986-.383-1.038-.616-2.797-1.208-3.087-2.82-1.386-6.883.819-7.814-5.743l-9.503-3.308c2.023-7.87 6.755-2.013 9.165-4.64 1.962 2.648 3.548 4.905 5.237 6.997.472.575 1.246.654 2.156 1.099l2.989-4.533-2.29-1.676c1.088-2.16 5.192-.19 3.812-5.762-2.76-2.41-7.53.93-9.277-6.019 1.016-3.872 3.907-4.361 6.63-5.636 2.99-1.402 7.106-1.248 6.884-7.89 2.41-.035 4.437-.499 6.339.037 1.603.445 3.547 3.463 4.49 2.844 3.876-2.552 2.289 3.316 4.2 4.494.409-6.688 6.2-4.43 7.86-9.512.089-.268 1.035-.39 1.154-.156 2.192 4.296 4.378 1.032 6.626.222l-7.568-8.487c4.885-1.458 8.782-4.548 13.204-3.329 3.46.956 6.606.508 10.02-.614 4.769-1.567 9.827-2.845 14.333 2.148.64.71 1.736.586 2.612.91 7.115 2.62 7.503 3.24 8.223 13.634 4.518-3.846 8.812-1.865 12.994.588 1.735 5.734-2.25 3.083-3.494 5.23l2.197 6.847c3.08-.726 5.994-1.092 8.766-2.138 3.408-1.284 4.119-5.16 3.51-10.133l14.24-3.494c3.223 3.25 6.43 8.252 11.773 8.38 1.248.029 3.62 4.482 3.475 6.606-.302 4.422.99 5.236 3.456 5.677 1.226.219 2.408.943 3.732 1.49 1.983-1.838 3.982-4.519 6.367-5.7 3.168-1.565 5.622-3.606 6.238-8.618 1.065.406 1.954.354 2.304.936 3.17 5.29 7.807 5.247 11.004 2.759 4.96-3.855 10.159-1.104 15.32-3.979l2.11-8.058c1.533 3.466 6.004.708 6.654 8.008l2.772-7.272 9.645 4.136c2.38-3.335 5.81-2.567 9.409-1.44 2.85.898 5.805 1.173 8.723 1.58 1.583.22 3.32-.422 4.756.281 9.327 4.567 18.92 3.523 28.414 2.93 5.923-.369 11.093 3.133 16.63 4.659.714.196 1.197 2.152 2.24 4.154l-5.262.078-.171 1.304 13.535 7.557c.91-3.702 1.645-6.708 2.274-9.267 5.432 1.495 10.774 3.552 16.195 4.231 3.097.389 5.07 1.917 7.155 5.97-1.4.37-2.575 1.144-3.623.873-3.266-.848-6.485-2.09-10.334-3.386l1.346 6.1-7.273-.533c1.24 3.375 1.005 7.212 4.18 4.427 3.345-2.936 2.944 1.404 3.925 4.143 1.48-.972 3.363-1.455 4.389-3.035 2.328-3.583 4.45-3.122 7.25-1.08 4.472 3.268 9.126 5.094 13.996 1.146 2.66-2.16 4.782-1.214 5.908 3.156.282 1.096.853 2.05 1.884 4.457.8-2.91 1.24-4.516 1.749-6.36l5.617.895c-.413-2.534-.93-4.28-.937-6.02-.018-4.477 1.293-4.44 4.694-2.89 2.669 1.224 5.734 4.542 8.898.534 1.392-1.756 3.416-2.543 5.49-4.01.75 2.688 1.469 5.244 2.155 7.731 4.11-.112 4.11-.112 7.855-4.083 6.019 1.024 12.149 5.416 17.457-.71 4.088 1.701 7.81 4.285 11.623 4.645 10.634 1 21.306 1.047 31.963 1.553 1.728.08 3.657-.026 5.14.987 6.105 4.17 12.286 5.894 18.944 3.399 1.195-.451 2.635.456 3.95.493 6.139.172 12.28.349 18.418.28.987-.014 1.952-1.267 2.94-1.909 1.915-1.245 3.839-2.464 5.759-3.692l.668 1.7a4314.736 4314.736 0 00-3.093 3.699c5.983 4.023 12.424 2.82 16.29-3.787.29 2.623.499 4.534.714 6.468 6.773 1.853 13.869 3.669 20.919 5.797 2.404.727 4.378 1.27 5.893-2.327.436-1.037 2.138-.9 2.777-1.905 1.537-2.42 2.364-2.638 3.586.574.41 1.08 2.303 1.073 3.633 2.965l-5.461 2.276c.569.61 1.023 1.454 1.587 1.647 4.16 1.434 7.76 5.935 12.348 4.82 1.057-.257 1.988-1.512 3.467-2.703.19.466.666 2.605 1.14 2.61 1.573.021 4.08 4.825 4.78-1.451.107-.961 1.732-1.649 2.709-2.305 1.362-.912 2.775-1.677 4.614-2.771l5.044 2.646c-1.837-6.07-1.837-6.07-6.683-10.144l2.71-7.145c.888-1.293 1.776-2.585 2.665-3.875.922 5.592.922 5.592-.622 10.796l5.295 1.163c-.26.985-.478 1.812-.694 2.644 4.792.73 9.576 1.669 14.38 2.134 7.917.762 15.845 1.453 23.77 1.673 2.619.072 5.369-.97 7.837-2.285 2.343-1.258 4.379-2.262 5.994 1.233 1.637 3.536 3.655 2.964 5.975 1.895 3.2-1.472 6.466-2.674 8.794-3.622 1.508-2.038 2.489-4.495 3.475-4.486 2.838.03 1.629 3.61 1.76 6.36 4.248.187 8.172.53 12.07 3.439 2.04 1.53 5.61-1.022 8.49-1.724 5.238-1.274 10.656-.753 15.773-3.343 1.067-.54 2.598 1.008 3.929 1.094 3.977.259 8.245 2.392 11.369-3.638 3.956 4.847 7.799 8.707 12.76 4.369l1.7 4.735 8.233 1.595c3.924-7.244 8.423-13.141 16.786-9.474l-1.777-8.077c5.215-.851 9.862.202 13.897 6.087.212 2.444.459 5.268.745 8.613 3.306.926 6.52 2.415 7.432 7.881 3.789-.938 6.088 3.382 9.16 5.155 3.894-2.096 6.267-6.286 7.296-12 2.32 1.701 3.144 3.028 4 5.746l11.594 1.548c-.62 3.392-1.23 6.729-1.966 10.77l7.018 6.432c-.333-6.603-2.546-12.353 2.004-16.496 2.179 2.185 1.189 6.432 2.564 10.41l4.78 3.009c2.078-3.337-1.57-11.213 4.738-10.403l-1.672 11.282c5.146-4.198 11.336 1.906 15.016-9.074-4.647 2.756-7.703 7.055-12.327 4.503 2.095-2.507 3.784-5.441 5.986-6.931 2.707-1.836 5.409-4.595 9.015-1.753 3.449 2.717 7.225 3.08 10.664-.908 2.112-2.448 3.779-.613 5.239 2.045-.584 2.378-1.206 4.865-1.801 7.269.68.55 1.149 1.176 1.335 1.043 4.234-3.041 8.348-1.442 12.023 1.604 3.936 3.262 6.168-1.91 9.235-2.726.948-.252 1.554-2.928 2.759-5.401 1.21.073 3.229.01 5.2.438.562.12 1.416 1.697 1.387 2.54-.254 6.488 2.15 2.18 3.83 1.8.445.879 1.024 1.842 1.46 2.916 1.406 3.45 3.187 3.837 5.756 2.376 1.817-1.03 3.974-.898 6.355-1.358l.826-2.516c.56.091 1.089-.044 1.395.261 4.786 4.833 9.726 8.655 15.876 9.25 4.51.435 8.94 2.518 13.43 3.584 2.59.613 2.04 3.337 2.13 6.195l-2.93-2.037.12 8.31c1.69 1.144 3.52 1.71 4.63 3.275 2.22 3.13 4.88 4.98 7.78 5.166 6.01.387 11.89 2.74 18.07 1.158 3.12-.797 6.98.305 9.88 2.341 3.72 2.618 6.21 2.395 8.82-1.963.91-1.508 2.49-2.206 3.82-3.31 2.22 2.965-.82 7.62 2.51 9.478 2.16 1.201 4.77.713 6.36 1.692 3.59 2.21 6.3 1.544 9.49-.543 1.23-.797 3.01.078 4.53.151 6.23.327 12.53 3.176 18.29-1.159 5.61 4.606-2.52 5.756-.19 10.05l5.11.472 2.11-6.145c.85.17 1.55.092 2.11.457 4.72 3.06 4.72 3.083 6.09 10.108l-7.88 3.782c-3.68-1.883-7.14-1.21-10.84 1.632.52 1.603.97 2.985 1.42 4.367l-.89 4.135c-10.45-1.799-20.15 2.144-30.9 3.17 4.7 5.572 9.85 2.72 13.92 4.801 4.68 2.393 8.92-2.804 14 .861-1.46 1.248-2.38 2.257-3.42 2.893-4.31 2.63-8.55 5.526-13 7.59-3.82 1.77-7.87 3.423-11.85 3.538-5.38.153-9.94 2.704-14.93 6.642 1.21 1.82 2.71 3.27 3.34 5.253.57 1.771.17 4.13 1.01 6.637l1.08-3.322c.74-2.255 1.17-4.732 3.76-3.987.81.233 1.92-1.347 2.84-2.21 3.18-3.035 6.58-3.608 10.38-2.527 2.1.598 4.41.401 6.54-.129 4.87-1.215 9.68-2.963 14.54-4.266 1.48-.4 3.05-.104 6.31-.152l-5.03 5.591c-2.23 1.012-4.43 2.291-6.71 2.967-3.05.902-6.24 1.007-9.23 2.145-1.06.406-1.72 2.835-3.07 5.252 4.52-.375 8.27.384 11.38-1.252 3.01-1.58 7.45-2.307 7.62-9.125 3.35 5.121 7.27 5.072 11.72 2.48.63 2.346 1.26 4.676 1.91 7.131-1.75.965-3.24 2.313-4.83 2.564-4.45.703-8.94.802-13.39 1.466-1.49.221-2.97 1.265-4.34 2.22-7.46 5.163-15.21 8.451-23.65 9-5.4.353-10.74 2.054-16.17 3.164l-5.05 11.384c2.61-1.019 4.55-1.585 6.38-2.538 2.39-1.238 4.66-1.154 7.24-.892 3.93.393 7.95-1.252 11.94-1.974 5.37-.973 10.72-2.143 16.12-2.667 1.44-.14 3.52.412 3.71 4.182.17 3.315-1.42 3.74-2.78 4.38-1.62.758-3.4.88-6.55 1.615l7.71 3.912c9.88-7.416 13.78-11.05 31.87-8.568l-5.32 10.73-6.45.556c3.02 7.275-4.09 6.76-4.2 11.981.35.344.85.808 1.33 1.282.48.475 1 1.03 1.73 1.78-2.28 3.26-3.26 8.02-7.15 8.145-.56.01-1.22.775-1.63 1.437-3.31 5.255-6.63 7.027-12.69 6.66.46 2.126.94 4.267 1.49 6.73 3.38-.82 7.08-1.176 10.5-2.712 2.93-1.315 5.4-4.9 8.34-5.764 2.61-.77 5.46 3.001 8.44.855l1.36 1.87zm-60.65-123.947l-1.79-5.896c-2.78.314-5.69.558-8.57 1.046-.47.078-.82 1.237-1.23 1.912l3.67 3.463-3.94 1.43c-.02.541-.03 1.084-.05 1.624l11.8 4.791c-1.84-4.134-1.95-6.528.11-8.376 2.01 1.795 3.91 4.715 6.05 5.15 4.47.896 9.08.735 13.6-1.159-2.92-1.838-6-2.222-8.8-3.702-2.84-1.5-5.39-4.084-8.31-6.386-.99 2.368-1.76 4.237-2.54 6.103zm-197.79 256.687c-.383-3.806-2.033-6.15-4.614-7.27-2.164-.936-4.43-1.432-6.554-2.507-1.316-.666-2.451-2.047-4.164-3.538l7.045-8.999-4.054-2.407-1.85 5.382c-5.582-7.967-9.545-9.304-14.152-4.878l8.93 7.044-.22 1.585-11.764 1.485.635-11.766c-2.764 4.26-3.058 9.426-3.574 14.508-.025.254-.676.377-1.236.67l-2.56-7.064-5.752 4.525c.488-3.589 1.66-5.986 2.649-8.524.149-.38-.552-1.423-1.147-2.84l-2.605 5.731-2.278-6.158c-1.746 8.908-6.526 14.024-6.95 22.448-.126 2.486-2.69 4.72-4.172 7.022-.844 1.314-1.761 2.516-2.615 3.726 4.436 7.335 7.964 9.132 10.093 4.317 2.066-4.676 4.503-4.316 7.354-4.447 6.425-.312 12.872.802 18.955-4.052 2.853-2.274 6.728-2.05 10.22-2.988l-2.564-2.61c6.06-.828 11.135 7.16 16.945 1.605zm119.823-49.672c1.473.827 2.258 1.31 3.065 1.713 1.004.497 2.023.93 2.789 1.278.69-1.935 1.04-4.272 1.643-4.4 6.21-1.333 12.25-6.316 18.81-1.04l3.57-11.517c-4.65.068-8.98-.61-13.08.41-3.46.87-7.92 2.515-9.62 6.038-1.65 3.426-3.085 3.894-5.324 4.376-.486.115-.838 1.368-1.853 3.142zm38.487-51.888l-2.98 1.065c7.39 2.808 14.05-6.565 21.02-.122 1.16-3.44 2.14-6.364 3.16-9.408 3.17 6.796 7.39 5.476 11.73 4.284.52-3.418.96-6.373 1.52-10.104-4.61 5.994-4.98 6.128-10.59 4.46-1.11-.329-2.22-.82-3.33-.863-3.63-.142-7.29.001-10.07 3.932-3.86 5.481-5.78 6-10.75 2.64-.21-.138-.66.444-.99.7.42 1.098.83 2.207 1.28 3.416zm62.75-14.832l.28 2.1c1.7.68 3.92 2.653 5.01 1.806 3.75-2.908 7.68-.944 11.44-1.819 1.08-.25 3.06-.696 3.05-1.026-.11-5.975 4.78-4.793 6.41-8.89-.83-.759-1.6-2.078-2.22-1.952-8.34 1.69-16.24 5.381-23.96 9.781h-.01zm-14.82 48.803c-1.56-1.098-3.07-2.44-4.71-3.209-1.44-.677-3.82 3.068-4.5-3.429-.97 4.414-4.2 6.193-2.4 11.395 3.96-1.934 9.13 3.214 11.62-4.757h-.01zm-72.55 19.658l-3.24 8.211c3.86 4.851 7.17-.695 10.76.97-1.25-5.798-4.44-7.19-7.52-9.182v.001zm29.52-30.416l10.68 6.057-.11-7.592-3.63-2.86-6.94 4.395z" fill-opacity=".8"/></svg>